<?xml version="1.0" encoding="UTF-8" standalone="no"?>
<!-- Created with Inkscape (http://www.inkscape.org/) -->

<svg
   width="160.33749mm"
   height="160.33748mm"
   viewBox="0 0 160.33749 160.33749"
   version="1.1"
   id="svg1"
   xml:space="preserve"
   xmlns="http://www.w3.org/2000/svg"
   xmlns:svg="http://www.w3.org/2000/svg"><defs
     id="defs1" /><circle
     style="fill:none;fill-opacity:1;stroke:none;stroke-width:0.1"
     id="path82"
     cx="80.168716"
     cy="80.168755"
     r="80.168747" /><path
     id="path25"
     style="font-size:34.7002px;font-family:'Afacad Flux';-inkscape-font-specification:'Afacad Flux, @wght=674';font-variation-settings:'wght' 674;letter-spacing:-0.256298px;fill:#dcaeac;stroke-width:27.2865"
     d="m 79.789981,3.0171482 c -7.65288,0 -9.85193,5.366721 -8.75307,11.7291428 1.28405,7.434668 4.7271,23.451163 8.75307,23.475005 4.02597,-0.02575 7.46961,-16.040337 8.75366,-23.475005 1.09886,-6.3624218 -1.10077,-11.7291428 -8.75366,-11.7291428 z M 38.033621,17.737851 v 6.01e-4 c -0.25249,-0.0086 -0.51118,-0.0043 -0.77343,0.0082 -1.39867,0.08876 -2.93564,0.561082 -4.60731,1.491598 -6.68674,3.722117 -5.99592,9.481603 -1.9413,14.506289 4.73791,5.871581 15.53497,18.189379 19.06429,16.252129 3.50616,-1.97888 -1.27098,-17.645783 -3.76498,-24.766376 -1.50072,-4.284611 -4.1897,-7.345986 -7.97727,-7.492561 z m 84.268899,6.01e-4 c -3.78733,0.14666 -6.47238,3.207347 -7.97311,7.491959 -2.49399,7.120636 -7.27589,22.787507 -3.76973,24.766387 3.52932,1.93724 14.32935,-10.378199 19.06727,-16.249738 4.05461,-5.02473 4.74305,-10.786617 -1.94368,-14.50869 -1.67169,-0.930562 -3.20864,-1.402874 -4.60731,-1.491599 -0.26228,-0.01715 -0.52095,-0.01686 -0.77344,-0.0082 z M 80.168961,48.658458 c -6.62638,9e-5 -12.89418,1.17007 -18.80708,3.51487 -5.81092,2.44669 -10.9581,5.76137 -15.44365,9.94117 -4.38366,4.17981 -7.80043,9.02318 -10.24707,14.52825 -2.44669,5.60708 -3.66987,11.5715 -3.66994,17.892246 0,5.912966 1.01679,11.314806 3.05571,16.208176 2.14074,4.99493 5.04841,9.27397 8.71802,12.84183 -2.24379,2.04694 -5.26097,5.48701 -7.0488,9.29836 -0.25906,0.55229 -0.49006,1.11612 -0.68491,1.68647 -1.11918,3.28316 -1.5794,5.94649 -1.74884,7.86499 a 13.814764,13.814764 0 0 0 0.002,3.47867 h 31.39285 60.357889 v -3.50122 c -0.17097,-1.91684 -0.63089,-4.57164 -1.74586,-7.84244 -0.19487,-0.57035 -0.42586,-1.13418 -0.68492,-1.68647 -1.78783,-3.81135 -4.80561,-7.25142 -7.04939,-9.29836 3.66961,-3.56792 6.57251,-7.84741 8.71328,-12.84239 2.03885,-4.89338 3.05809,-10.29462 3.05809,-16.207616 0,-6.320746 -1.22497,-12.285166 -3.67174,-17.892246 -2.44676,-5.50507 -5.85859,-10.34904 -10.24231,-14.52884 -4.48568,-4.17982 -9.63753,-7.4945 -15.448409,-9.94115 -5.91289,-2.34479 -12.1788,-3.51421 -18.8053,-3.5143 z m 0.002,24.31436 c 20.100649,2.2e-4 36.394749,11.09165 36.394009,24.773546 7.4e-4,13.681946 -16.29329,24.772776 -36.394009,24.772946 -20.10072,-1.7e-4 -36.39714,-11.091 -36.39639,-24.772946 -7.5e-4,-13.681986 16.29573,-24.773326 36.39639,-24.773546 z" /></svg>
