<?xml version="1.0" encoding="UTF-8" standalone="no"?>
<!-- Created with Inkscape (http://www.inkscape.org/) -->

<svg
   width="477.45584mm"
   height="135.46667mm"
   viewBox="0 0 477.45584 135.46669"
   version="1.1"
   id="svg1"
   xml:space="preserve"
   xmlns="http://www.w3.org/2000/svg"
   xmlns:svg="http://www.w3.org/2000/svg"><defs
     id="defs1" /><g
     id="g60"
     transform="matrix(1.0897559,0,0,1.0897559,-303.8488,-79.519282)"><path
       id="path25"
       style="font-size:34.7002px;font-family:'Afacad Flux';-inkscape-font-specification:'Afacad Flux, @wght=674';font-variation-settings:'wght' 674;letter-spacing:-0.256298px;fill:#dcaeac;stroke-width:23.7372"
       d="m 324.189,72.969811 c -6.65743,0 -8.57044,4.668648 -7.61452,10.203481 1.11703,6.467608 4.11223,20.400768 7.61452,20.421508 3.5023,-0.0224 6.49801,-13.9539 7.61504,-20.421508 0.95593,-5.534833 -0.95759,-10.203481 -7.61504,-10.203481 z m -36.32492,12.805916 v 5.23e-4 c -0.21965,-0.0075 -0.44469,-0.0038 -0.67283,0.0072 -1.21674,0.07722 -2.55378,0.488099 -4.00802,1.29758 -5.81696,3.237964 -5.216,8.248288 -1.68878,12.619392 4.12163,5.107838 13.51427,15.823408 16.58451,14.138148 3.0501,-1.72148 -1.10566,-15.350524 -3.27525,-21.54491 -1.30552,-3.727293 -3.64473,-6.390461 -6.93963,-6.51797 z m 73.30767,5.23e-4 c -3.2947,0.127583 -5.63049,2.790154 -6.93601,6.517447 -2.16959,6.194423 -6.32948,19.823433 -3.27938,21.544913 3.07024,1.68526 12.46547,-9.02826 16.5871,-14.136062 3.52721,-4.371141 4.1261,-9.383555 -1.69086,-12.621481 -1.45424,-0.809519 -2.79128,-1.220396 -4.00802,-1.29758 -0.22816,-0.01492 -0.45318,-0.01466 -0.67283,-0.0072 z m -36.65306,26.89811 c -5.76445,7e-5 -11.21698,1.01787 -16.36076,3.05767 -5.05507,2.12844 -9.53273,5.01196 -13.43483,8.64808 -3.81346,3.63612 -6.78579,7.8495 -8.91419,12.6385 -2.12844,4.87774 -3.19251,10.06634 -3.19257,15.56492 0,5.14384 0.88453,9.84304 2.65824,14.09991 1.86228,4.34522 4.39174,8.06766 7.58403,11.17144 -1.95193,1.78068 -4.57666,4.77329 -6.13193,8.08888 -0.22536,0.48045 -0.42632,0.97094 -0.59582,1.4671 -0.97361,2.85611 -1.37396,5.17301 -1.52136,6.84196 a 12.017817,12.017817 0 0 0 0.002,3.02618 h 27.30944 52.50687 v -3.0458 c -0.14873,-1.6675 -0.54883,-3.97698 -1.51877,-6.82234 -0.16951,-0.49616 -0.37046,-0.98665 -0.59582,-1.4671 -1.55528,-3.31559 -4.18052,-6.3082 -6.13245,-8.08888 3.19229,-3.10382 5.7176,-6.82667 7.5799,-11.17192 1.77366,-4.25688 2.66031,-8.95556 2.66031,-14.09943 0,-5.49858 -1.06563,-10.68718 -3.19413,-15.56492 -2.1285,-4.789 -5.09654,-9.0029 -8.91005,-12.63902 -3.90221,-3.63612 -8.38394,-6.51965 -13.43897,-8.64805 -5.14377,-2.0398 -10.59465,-3.05711 -16.35921,-3.05718 z m 0.002,21.15168 c 17.48607,1.9e-4 31.66073,9.64891 31.66008,21.55115 6.5e-4,11.90228 -14.17395,21.55047 -31.66008,21.55062 -17.48613,-1.5e-4 -31.6628,-9.64834 -31.66215,-21.55062 -6.5e-4,-11.90232 14.17607,-21.55096 31.66215,-21.55115 z" /><path
       id="path47"
       style="font-size:35.8222px;font-family:'Abhaya Libre';-inkscape-font-specification:'Abhaya Libre, Normal';letter-spacing:-0.264583px;fill:#dcaeac;fill-opacity:1;stroke-width:15.6284"
       d="m 497.83576,115.96329 c -0.90765,-5e-5 -1.61266,0.19905 -2.14095,0.54622 -1.1644,0.76085 -1.4664,2.24555 -1.17978,3.90571 0.4872,2.82174 1.79274,8.9004 3.32073,8.90953 1.52795,-0.0107 2.83638,-6.0869 3.32383,-8.9085 0.4171,-2.41468 -0.41942,-4.45279 -3.32383,-4.45296 z m -85.12452,0.001 v 5.2e-4 c -2.54323,0 -4.88478,0.44556 -7.02644,1.3379 -2.14167,0.89237 -3.99256,2.12032 -5.55418,3.68194 v -0.37775 c 0,0 -4.88396,-3.22115 -9.74876,-3.63957 h -0.0904 v 64.8808 0.0119 h 0.32195 0.59376 c 5.0885,-0.13616 10.46189,-3.68039 10.46189,-3.68039 v -20.87005 c 1.4724,1.16011 3.14588,2.05324 5.01985,2.67787 1.87397,0.66929 3.88071,1.00253 6.02237,1.00253 2.81095,0 5.42167,-0.53523 7.83105,-1.60611 2.45401,-1.0708 4.59766,-2.56536 6.427,-4.48396 1.82934,-1.96318 3.2557,-4.21549 4.28191,-6.75876 1.0708,-2.58785 1.60558,-6.76386 1.60558,-9.66402 0,-2.90021 -0.53478,-7.0536 -1.60558,-9.59683 -1.02621,-2.58781 -2.45257,-4.84016 -4.28191,-6.75876 -1.82934,-1.96317 -3.97299,-3.48034 -6.427,-4.55114 -2.40938,-1.07088 -5.0201,-1.6061 -7.83105,-1.6061 z m 69.1348,4.10931 c -0.0958,-0.004 -0.19398,-0.002 -0.29352,0.004 -0.53109,0.0334 -1.11577,0.21289 -1.75028,0.56586 -0.15811,0.0887 -0.30395,0.18149 -0.44184,0.2744 l -5.1e-4,-5.2e-4 c -2.05729,1.41008 -1.73449,3.44491 -0.29197,5.23276 1.79807,2.22844 5.89411,6.90272 7.23366,6.16758 1.33046,-0.75132 -0.48241,-6.69894 -1.42885,-9.40149 -0.56943,-1.62606 -1.58904,-2.78727 -3.02669,-2.84273 z m 32.27607,0.005 c -0.59715,-0.0381 -1.12897,0.10779 -1.59112,0.39635 -0.77195,0.47852 -1.3497,1.35943 -1.72961,2.44326 -0.94667,2.70243 -2.76006,8.64942 -1.42937,9.40046 1.33944,0.7353 5.43627,-3.93837 7.2347,-6.16654 1.53886,-1.90692 1.80138,-4.09497 -0.73639,-5.50768 -0.63448,-0.35321 -1.21733,-0.53216 -1.74821,-0.56585 z m -102.68107,1.29862 c 2.00781,0 3.8146,0.72413 5.42085,2.17145 1.65087,1.38432 2.96855,3.27263 3.95015,5.66373 0.98159,2.32824 1.47278,6.37205 1.47278,9.26662 0,2.89457 -0.49119,6.96799 -1.47278,9.35913 -0.9816,2.32824 -2.29928,4.21286 -3.95015,5.66011 -1.65087,1.38439 -3.47866,2.07791 -5.48648,2.07791 -2.00782,0 -3.83768,-0.69352 -5.48856,-2.07791 -1.60624,-1.44725 -2.90084,-3.33187 -3.88245,-5.66011 -0.93698,-2.39114 -1.40508,-6.46456 -1.40508,-9.35913 0,-2.89457 0.4681,-6.93838 1.40508,-9.26662 0.98161,-2.3911 2.29721,-4.27941 3.94808,-5.66373 1.65087,-1.44732 3.48074,-2.17145 5.48856,-2.17145 z m 86.02937,14.92467 c -2.58788,0 -4.9525,0.44609 -7.09414,1.33842 -2.18631,0.93699 -4.05973,2.20899 -5.62136,3.81527 v -0.50901 c 0,0 -4.89949,-3.23162 -9.77202,-3.64164 v 20.0794 20.02617 h 0.002 v 19.85615 0.0119 h 0.33538 0.56689 c 5.09229,-0.13057 10.47533,-3.6804 10.47533,-3.6804 v -18.83657 c 1.19458,0.94236 2.53211,1.73073 4.01371,2.36574 2.14164,0.89234 4.50626,1.33791 7.09414,1.33791 2.76636,0 5.37704,-0.53729 7.83105,-1.60817 2.40936,-1.07084 4.52633,-2.5633 6.35568,-4.4819 1.82934,-1.96321 3.28036,-4.21759 4.35116,-6.76083 1.02624,-2.58785 1.54045,-5.32931 1.54047,-8.22947 -2e-5,-2.90013 -0.51423,-5.64577 -1.54047,-8.23361 -1.0708,-2.54324 -2.52182,-4.79609 -4.35116,-6.75927 -1.82935,-1.91855 -3.94632,-3.41316 -6.35568,-4.48397 -2.45401,-1.07084 -5.06469,-1.60559 -7.83105,-1.60559 z m -44.2929,0.0279 v 5.2e-4 c -9.00533,-0.51339 -17.27096,7.54122 -19.54196,12.82144 -2.75339,6.40184 -1.69457,12.3468 0,16.46359 2.73377,6.64138 7.39301,9.78124 10.7089,11.24273 2.78304,1.22667 5.33529,1.67934 8.83306,1.58492 4.84817,-0.13094 10.02022,-0.86691 14.87506,-5.74126 -2.40333,-1.20894 -4.42412,-3.62198 -5.73144,-6.75101 -1.9911,4.58829 -5.43982,7.36456 -9.14362,7.36441 -5.21904,-5.3e-4 -9.69729,-5.46447 -10.65672,-13.00127 h 16.61759 v -0.0253 c 1.21999,0.0224 2.2436,-0.007 3.45664,-0.14315 6.42847,-0.7101 9.76285,-3.85086 9.81232,-9.42113 0.0387,-4.36491 -5.90653,-14.34396 -19.22983,-14.39447 z m 85.45783,5.2e-4 c -4.84802,0.13097 -10.01987,0.86707 -14.87454,5.74125 2.40333,1.20894 4.42411,3.62198 5.73143,6.75101 1.9911,-4.58829 5.43983,-7.36456 9.14363,-7.36441 5.21904,5.3e-4 9.69728,5.46448 10.65671,13.00128 h -16.61759 v 0.0258 c -1.21999,-0.0224 -2.2436,0.007 -3.45664,0.14315 -6.42847,0.7101 -9.76282,3.85086 -9.81232,9.42113 -0.0387,4.36491 5.90654,14.34397 19.22984,14.39447 v -0.001 c 3.49964,0.19951 6.88741,-0.89468 9.85521,-2.61742 v 2.56987 0.0114 h 0.9157 c 5.0885,-0.13616 10.4619,-3.68039 10.4619,-3.68039 l -0.0145,-16.46515 c 0.12988,-3.49609 -0.65872,-6.62977 -1.6769,-9.10332 -2.73377,-6.64138 -7.39302,-9.78124 -10.70891,-11.24273 -2.78289,-1.2266 -5.33505,-1.67925 -8.83253,-1.58491 z m -85.45783,5.12578 c 12.68832,0.0261 13.35648,11.61687 10.1694,11.61687 h -20.60649 c 1.31491,-6.86998 5.57956,-11.62765 10.43709,-11.61687 z m 42.88575,0 c 5.98827,-10e-4 10.8433,7.13012 10.84378,15.92772 2.3e-4,8.79835 -4.855,15.93056 -10.84378,15.92926 -14.05191,-0.002 -14.12762,-31.8537 0,-31.85698 z m 32.40267,20.24425 h 20.6065 c -1.31491,6.86998 -5.57956,11.62766 -10.43709,11.61686 -12.68832,-0.0261 -13.35649,-11.61686 -10.16941,-11.61686 z" /><path
       id="path48"
       style="font-size:35.8222px;font-family:'Abhaya Libre';-inkscape-font-specification:'Abhaya Libre, Normal';letter-spacing:-0.264583px;fill:#b3a395;fill-opacity:1;stroke-width:11.8096"
       d="m 653.91874,115.96329 v 2.36523 c 2.56524,0.002 4.93117,0.44824 7.09724,1.33842 v 49.75201 c 0,2.90144 -0.81983,4.63563 -2.4598,5.2033 -0.94613,0.31523 -2.49293,0.47336 -4.63744,0.47336 v 2.36523 h 20.57652 c 0,-2.23237 -1.11203,-2.48977 -2.35489,-2.48977 h -4.0287 v -59.00778 z m 41.60883,0 v 2.36523 c 2.56524,0.002 4.93117,0.44824 7.09724,1.33842 l 0.01,21.90254 c -3.07732,-3.39134 -7.22228,-5.08703 -12.4349,-5.08703 -6.90828,0 -12.12086,3.07684 -15.6378,9.23149 -2.13529,3.76815 -3.20291,8.00738 -3.20291,12.71757 0,7.78751 2.44927,13.47141 7.34787,17.05115 2.76331,1.94688 5.8089,2.92024 9.13743,2.92024 6.84548,-0.12561 11.80703,-3.76801 14.88436,-10.9275 l 0.75396,9.98544 h 13.47101 c 0,-1.38165 -0.47131,-2.13524 -1.41335,-2.26085 -0.25121,-0.0628 -0.56525,-0.094 -0.94206,-0.094 h -4.70979 l -0.16813,-59.1427 z m -84.27754,2.06344 c -4.51522,1.03588 -7.6478,4.12862 -8.23051,4.65398 -3.97365,-1.9553 -8.20103,-2.93212 -12.67933,-2.93212 -7.56892,0 -14.06485,2.49113 -19.48925,7.47396 -5.92897,5.4875 -8.89299,12.64633 -8.89299,21.47673 0,10.0919 3.59442,17.97508 10.78487,23.65179 5.23519,4.03673 11.10072,6.05545 17.59737,6.05545 4.73058,0 9.02042,-1.04035 12.86795,-3.12178 0.50459,-0.25218 0.91452,-0.50524 1.2299,-0.75757 1.66365,1.40091 4.59796,4.02052 8.04189,4.61057 v -24.76283 h 4.53099 c -0.0862,0.82959 -0.13023,1.6815 -0.13023,2.55488 0,7.94739 2.90155,13.90739 8.70438,17.88108 3.53219,2.39681 7.44355,3.59565 11.73262,3.59565 6.05513,0 11.06883,-2.14366 15.04249,-6.43269 3.65832,-3.91065 5.487,-8.79937 5.487,-14.66525 0,-7.94739 -2.932,-13.84498 -8.79791,-17.69247 -3.46911,-2.20763 -7.28498,-3.31246 -11.44788,-3.31246 -6.05517,0 -11.10183,2.08168 -15.13861,6.24459 -2.57997,2.66742 -4.26523,5.78995 -5.05654,9.36687 h -21.38887 v 2.4598 h 8.51524 v 14.76034 c -3.15373,3.78444 -7.38055,5.8966 -12.67881,6.33811 -0.50458,0.0631 -1.00902,0.0951 -1.51361,0.0951 -12.5518,-0.12646 -18.85929,-8.95679 -18.92236,-26.49141 0,-15.01169 4.54131,-23.71633 13.62398,-26.11314 1.57688,-0.37846 3.24859,-0.56741 5.01468,-0.56741 6.49666,0 11.1959,1.79824 14.09733,5.39347 1.89222,2.45993 3.59445,6.30777 5.10822,11.54297 h 2.46134 z m 80.26848,20.81114 c 4.58458,0 7.85046,2.44876 9.79734,7.34736 1.06765,2.6377 1.60145,5.7463 1.60145,9.32604 0,7.5363 -1.88422,13.00043 -5.65237,16.39177 -2.00968,1.82127 -4.3022,2.73161 -6.8771,2.73161 -5.14981,0 -8.50941,-3.13984 -10.07948,-9.42009 -0.62802,-2.3237 -0.94207,-4.9615 -0.94207,-7.91322 0,-8.85516 2.38627,-14.60104 7.15926,-17.23874 1.50727,-0.81643 3.17169,-1.22473 4.99297,-1.22473 z m -58.74163,0.66662 h 5.2e-4 c 3.42651,0.32679 5.45772,1.36366 6.09213,3.10834 0.18914,0.50459 0.28319,1.13552 0.28319,1.8924 0,2.7753 -2.58606,4.79294 -7.75818,6.05441 -1.90349,0.47587 -3.93253,0.77199 -6.08749,0.88883 0.90185,-6.24206 3.39183,-10.22388 7.46983,-11.94398 z m 10.80968,0.78548 c 3.21863,2.008 5.19728,5.88275 5.93555,11.62514 0.18951,1.5138 0.2837,3.18554 0.2837,5.01468 0,10.59653 -2.9015,16.80952 -8.70437,18.63866 -1.1353,0.31522 -2.30115,0.47387 -3.49953,0.47387 -6.3705,0 -10.37687,-3.78542 -12.01684,-11.35435 -0.4415,-2.2076 -0.66249,-4.6672 -0.66249,-7.37939 0,-1.18078 0.0395,-2.30605 0.11782,-3.37551 8.54236,-0.29061 14.25573,-2.61221 17.14004,-6.96805 1.00917,-1.57685 1.5136,-3.24859 1.5136,-5.01468 0,-0.5794 -0.037,-1.13345 -0.10748,-1.66037 z" /></g></svg>
